<?xml version="1.0" encoding="utf-8"?>
<!-- Generator: Adobe Illustrator 21.1.0, SVG Export Plug-In . SVG Version: 6.00 Build 0)  -->
<svg version="1.1" id="Capa_1" xmlns="http://www.w3.org/2000/svg" xmlns:xlink="http://www.w3.org/1999/xlink" x="0px" y="0px"
	 width="512px" height="512px" viewBox="0 0 512 512" style="enable-background:new 0 0 512 512;" xml:space="preserve">
<style type="text/css">
	.st0{fill:#9E9D9D;}
	.st1{fill:#49B6F2;}
	.st2{fill:#2E93CC;}
	.st3{fill:#C7C7C7;}
	.st4{fill:#19303F;}
	.st5{fill:#B45F4A;}
	.st6{fill:#68C8FC;}
	.st7{fill:#B2B1AF;}
	.st8{fill:#5880A2;}
</style>
<g>
	<path class="st0" d="M407.2,155.8h-23.5c-4.1,0-7.5,3.4-7.5,7.5v39.3c0,4.1,3.4,7.5,7.5,7.5h23.5c12.8,0,23.3-10.4,23.3-23.3v-7.8
		C430.5,166.3,420,155.8,407.2,155.8z"/>
	<path class="st0" d="M128.4,155.8h-23.5c-12.8,0-23.3,10.4-23.3,23.3v7.8c0,12.8,10.4,23.3,23.3,23.3h23.5c4.1,0,7.5-3.4,7.5-7.5
		v-39.3C135.9,159.2,132.5,155.8,128.4,155.8z"/>
</g>
<path class="st1" d="M308.9,355.9H203.1c-45.7,0-82.9,37.2-82.9,82.9v65.7c0,4.1,3.4,7.5,7.5,7.5h256.6c4.1,0,7.5-3.4,7.5-7.5v-65.7
	C391.8,393.1,354.6,355.9,308.9,355.9z"/>
<path class="st2" d="M308.9,355.9h-27.3c45.7,0,82.9,37.2,82.9,82.9v65.7c0,4.1-3.4,7.5-7.5,7.5h27.3c4.1,0,7.5-3.4,7.5-7.5v-65.7
	C391.8,393.1,354.6,355.9,308.9,355.9z"/>
<path class="st3" d="M356.3,512l-8.7-58.5c-0.6-4.3-3.8-7.5-7.4-7.5H171.8c-3.6,0-6.7,3.2-7.4,7.5l-8.7,58.5H356.3z"/>
<g>
	<path class="st4" d="M322.7,476.5c-4.1,0-7.5-3.4-7.5-7.5V364.7c0-4.1,3.4-7.5,7.5-7.5c4.1,0,7.5,3.4,7.5,7.5V469
		C330.2,473.1,326.8,476.5,322.7,476.5z"/>
	<path class="st4" d="M189.3,476.5c-4.1,0-7.5-3.4-7.5-7.5V364.7c0-4.1,3.4-7.5,7.5-7.5s7.5,3.4,7.5,7.5V469
		C196.8,473.1,193.5,476.5,189.3,476.5z"/>
</g>
<path class="st5" d="M208.3,258.9v102.8c0,22.3,15.3,41,35.9,46.3l11.8-11.8l11.8,11.8c20.7-5.3,35.9-24,35.9-46.3V258.9H208.3z"/>
<g>
	<path class="st6" d="M328.5,359.4L314,345.6c-2.6-2.5-6.6-2.7-9.5-0.7l-52.8,37.8c-1.8,1.3-2.9,3.3-3.1,5.5
		c-0.2,2.2,0.6,4.4,2.2,5.9l39.3,39.3c1.4,1.4,3.3,2.2,5.3,2.2c0.5,0,0.9,0,1.4-0.1c2.4-0.5,4.5-2.1,5.5-4.3l28.1-63.3
		C331.5,365,330.8,361.6,328.5,359.4z"/>
	<path class="st6" d="M263.5,388.2c-0.2-2.2-1.3-4.2-3.1-5.5l-52.8-37.8c-2.9-2.1-6.9-1.8-9.5,0.7l-14.6,13.8
		c-2.3,2.2-3,5.6-1.7,8.5l28.1,63.3c1,2.3,3.1,3.9,5.5,4.3c0.5,0.1,0.9,0.1,1.4,0.1c2,0,3.9-0.8,5.3-2.2l39.3-39.3
		C262.9,392.5,263.7,390.4,263.5,388.2z"/>
</g>
<path class="st3" d="M297.5,0h-83.1c-56.8,0-103,46.2-103,103v187.4c0,25.9,19.3,48.2,45,51.8c33,4.7,66.3,7,99.5,7s66.5-2.3,99.5-7
	c25.6-3.6,45-25.9,45-51.8V103C400.5,46.2,354.3,0,297.5,0z"/>
<path class="st7" d="M297.5,0H271c56.8,0,103,46.2,103,103v187.4c0,25.9-19.3,48.2-45,51.8c-28.6,4-57.4,6.3-86.3,6.9
	c4.4,0.1,8.8,0.1,13.2,0.1c33.3,0,66.5-2.3,99.5-7c25.6-3.6,45-25.9,45-51.8V103C400.5,46.2,354.3,0,297.5,0z"/>
<path class="st8" d="M351.4,151.7H160.6c-4.1,0-7.5,3.4-7.5,7.5v74.7c0,4.1,3.4,7.5,7.5,7.5h190.9c4.1,0,7.5-3.4,7.5-7.5v-74.7
	C358.9,155,355.6,151.7,351.4,151.7z"/>
</svg>
